#!OML:ASF H:\Pregnant\Project 1\Capture day 1\Session 1\femalepreg.ASF
:FULLY-SPECIFIED
:DEGREES
1707
root 5.31555 3.06163 18.0588 -51.601 25.8595 -78.7339
lowerback 8.42096 6.90987 2.74676
upperback 7.44901 9.88231 9.08345
thorax 1.94677 5.11895 7.27619
lowerneck -20.0461 -12.0719 -9.35368
upperneck 12.714 -19.1752 25.2877
head 11.2406 -7.02303 7.26555
rclavicle -9.85972e-014 -9.22361e-014
rhumerus 114.363 66.786 4.23108
rradius 56.073
rwrist 11.1463
rhand -60.7422 730.403
rfingers 7.12502
rthumb -32.8581 -376.627
lclavicle -9.85972e-014 -9.22361e-014
lhumerus -32.324 10.6054 30.3136
lradius 101.174
lwrist -0.0579053
lhand -37.4407 -7.60584
lfingers 7.12502
lthumb -10.4997 22.1119
rfemur -55.9143 11.4178 9.11303
rtibia 80.9105
rfoot 0.296737 -12.565
rtoes 0.572094
lfemur -73.9634 -14.3838 -22.962
ltibia 1.23184e-014
lfoot -185.67 -205.192
ltoes -38.9553
1708
root 5.31711 3.06466 18.0706 -51.366 25.9658 -78.6847
lowerback 8.26639 7.01148 2.73928
upperback 7.40808 10.0102 9.07486
thorax 1.97472 5.18324 7.27701
lowerneck -19.9562 -12.34 -9.39273
upperneck 12.3075 -19.4934 25.3995
head 11.1602 -7.19657 7.22415
rclavicle -1.33583e-013 -3.18055e-014
rhumerus 114.208 66.7846 4.15819
rradius 55.8731
rwrist 11.1785
rhand -60.7894 730.472
rfingers 7.12502
rthumb -32.903 -376.549
lclavicle -1.33583e-013 -3.18055e-014
lhumerus -35.0165 11.2177 31.5496
lradius 101.819
lwrist 0.797178
lhand -39.5478 -12.7395
lfingers 7.12502
lthumb -12.5318 16.8647
rfemur -56.1059 11.5062 9.00901
rtibia 81.0375
rfoot 0.283977 -12.5564
rtoes 0.630105
lfemur -74.2462 -14.4317 -22.7133
ltibia -7.442e-014
lfoot -185.682 -205.066
ltoes -39.0129
1709
root 5.31843 3.06777 18.0827 -51.1476 26.0701 -78.6457
lowerback 8.11384 7.1159 2.73339
upperback 7.3684 10.1423 9.06726
thorax 2.00258 5.24985 7.27797
lowerneck -19.8755 -12.6053 -9.45057
upperneck 11.9226 -19.8055 25.5081
head 11.0905 -7.36678 7.18681
rclavicle 1.27222e-013 9.22361e-014
rhumerus 113.983 66.797 4.02875
rradius 55.6816
rwrist 11.2191
rhand -60.8367 730.53
rfingers 7.12502
rthumb -32.948 -376.481
lclavicle 1.27222e-013 9.22361e-014
lhumerus -37.6736 11.7889 32.7654
lradius 102.414
lwrist 1.82467
lhand -41.292 -18.1347
lfingers 7.12502
lthumb -14.213 11.359
rfemur -56.2811 11.5949 8.92342
rtibia 81.1626
rfoot 0.26002 -12.5357
rtoes 0.712564
lfemur -74.5189 -14.48 -22.4596
ltibia -6.21202e-015
lfoot -185.688 -204.936
ltoes -39.0658
1710
root 5.31941 3.07154 18.0919 -50.9374 26.2495 -78.5788
lowerback 7.99526 7.21611 2.66995
upperback 7.32803 10.2663 9.03533
thorax 2.00652 5.31013 7.27984
lowerneck -19.8012 -12.8654 -9.53689
upperneck 11.5547 -20.1069 25.623
head 11.0308 -7.53151 7.15959
rclavicle 0 9.54166e-015
rhumerus 113.723 66.8156 3.86493
rradius 55.493
rwrist 11.262
rhand -60.8808 730.579
rfingers 7.12502
rthumb -32.99 -376.423
lclavicle 0 9.54166e-015
lhumerus -40.2947 12.3123 33.9337
lradius 102.958
lwrist 2.7038
lhand -42.8455 -23.2087
lfingers 7.12502
lthumb -15.7096 6.17369
rfemur -56.4266 11.6381 8.76553
rtibia 81.2866
rfoot 0.223506 -12.4732
rtoes 0.801497
lfemur -74.7293 -14.5594 -22.2858
ltibia 2.80783e-015
lfoot -185.713 -204.838
ltoes -39.0963
1711
root 5.32012 3.07567 18.0988 -50.746 26.4875 -78.4924
lowerback 7.91887 7.30483 2.57134
upperback 7.28876 10.3741 8.98121
thorax 1.9881 5.36083 7.27233
lowerneck -19.7285 -13.1139 -9.65502
upperneck 11.1962 -20.3887 25.7565
head 10.9783 -7.68649 7.14948
rclavicle -6.99722e-014 -1.27222e-014
rhumerus 113.481 66.8343 3.70052
rradius 55.3029
rwrist 11.2998
rhand -60.9209 730.652
rfingers 7.12502
rthumb -33.0281 -376.342
lclavicle -6.99722e-014 -1.27222e-014
lhumerus -42.8822 12.8311 35.0462
lradius 103.45
lwrist 3.27358
lhand -44.2588 -27.492
lfingers 7.12502
lthumb -17.0703 1.77801
rfemur -56.5349 11.644 8.55731
rtibia 81.4091
rfoot 0.192468 -12.4165
rtoes 0.832142
lfemur -74.8778 -14.6678 -22.1765
ltibia -4.32357e-014
lfoot -185.752 -204.768
ltoes -39.1083
1712
root 5.32057 3.08005 18.1034 -50.5746 26.7834 -78.3885
lowerback 7.88562 7.37916 2.44417
upperback 7.24862 10.4621 8.90281
thorax 1.94662 5.4003 7.24952
lowerneck -19.6302 -13.3469 -9.80571
upperneck 10.8229 -20.6436 25.9236
head 10.9208 -7.83098 7.164
rclavicle -7.95139e-014 2.54444e-014
rhumerus 113.272 66.8517 3.54192
rradius 55.1076
rwrist 11.3298
rhand -60.9574 730.771
rfingers 7.12502
rthumb -33.0629 -376.216
lclavicle -7.95139e-014 2.54444e-014
lhumerus -45.427 13.3735 36.1103
lradius 103.884
lwrist 3.50869
lhand -45.6287 -30.7417
lfingers 7.12502
lthumb -18.3885 -1.59082
rfemur -56.6042 11.6123 8.30109
rtibia 81.5289
rfoot 0.177866 -12.4168
rtoes 0.666028
lfemur -74.9687 -14.8104 -22.1305
ltibia 1.86361e-014
lfoot -185.804 -204.728
ltoes -39.1002
1713
root 5.32081 3.08444 18.1072 -50.4312 27.1036 -78.2852
lowerback 7.88372 7.44157 2.31759
upperback 7.20741 10.5348 8.80746
thorax 1.89164 5.43198 7.20496
lowerneck -19.5702 -13.5561 -9.94595
upperneck 10.4875 -20.8684 26.0684
head 10.8741 -7.95713 7.17547
rclavicle -9.54166e-015 1.24042e-013
rhumerus 113.068 66.8673 3.36644
rradius 54.9211
rwrist 11.3456
rhand -60.9894 730.9
rfingers 7.12502
rthumb -33.0933 -376.08
lclavicle -9.54166e-015 1.24042e-013
lhumerus -47.9073 13.9557 37.1238
lradius 104.234
lwrist 3.47175
lhand -46.9544 -33.097
lfingers 7.12502
lthumb -19.6635 -4.07147
rfemur -56.6355 11.5623 8.03876
rtibia 81.645
rfoot 0.1889 -12.54
rtoes 0.262669
lfemur -75.0214 -14.9767 -22.1112
ltibia -1.89342e-014
lfoot -185.859 -204.708
ltoes -39.0797
1714
root 5.3207 3.0881 18.1144 -50.3269 27.3459 -78.2371
lowerback 7.86791 7.50016 2.27845
upperback 7.16863 10.6077 8.72936
thorax 1.85907 5.46685 7.13467
lowerneck -19.5561 -13.7444 -10.0867
upperneck 10.1856 -21.0625 26.1899
head 10.8387 -8.06482 7.18488
rclavicle -6.36111e-015 -5.40694e-014
rhumerus 112.844 66.8773 3.15655
rradius 54.7403
rwrist 11.3502
rhand -61.0131 731.048
rfingers 7.12502
rthumb -33.1158 -375.927
lclavicle -6.36111e-015 -5.40694e-014
lhumerus -50.2928 14.5832 38.1031
lradius 104.482
lwrist 3.27745
lhand -48.2218 -34.777
lfingers 7.12502
lthumb -20.8815 -5.8808
rfemur -56.6508 11.5554 7.89392
rtibia 81.7578
rfoot 0.214252 -12.8331
rtoes -0.288355
lfemur -75.1151 -15.1272 -22.0032
ltibia 9.34288e-015
lfoot -185.885 -204.663
ltoes -39.0707
1715
root 5.32014 3.09104 18.126 -50.257 27.4848 -78.2579
lowerback 7.81419 7.56212 2.34168
upperback 7.13145 10.6907 8.6781
thorax 1.86121 5.51042 7.04375
lowerneck -19.5791 -13.9186 -10.2173
upperneck 9.91169 -21.2358 26.2794
head 10.8099 -8.15992 7.18512
rclavicle 1.49486e-013 0
rhumerus 112.556 66.8807 2.88421
rradius 54.5715
rwrist 11.3437
rhand -61.0356 731.208
rfingers 7.12502
rthumb -33.1371 -375.764
lclavicle 1.49486e-013 0
lhumerus -52.5555 15.2263 39.0604
lradius 104.623
lwrist 3.10755
lhand -49.3053 -36.115
lfingers 7.12502
lthumb -21.9222 -7.33704
rfemur -56.6661 11.6147 7.89456
rtibia 81.8701
rfoot 0.235892 -13.3067
rtoes -0.845295
lfemur -75.2776 -15.2483 -21.7753
ltibia 5.68524e-014
lfoot -185.875 -204.579
ltoes -39.0797
1716
root 5.31908 3.09329 18.1418 -50.218 27.5242 -78.3438
lowerback 7.71603 7.63258 2.49902
upperback 7.09696 10.7899 8.65592
thorax 1.90066 5.56553 6.93998
lowerneck -19.5989 -14.0919 -10.3517
upperneck 9.63462 -21.4033 26.3599
head 10.7774 -8.25371 7.18375
rclavicle -3.49861e-014 -6.36111e-014
rhumerus 112.17 66.8807 2.52809
rradius 54.4173
rwrist 11.331
rhand -61.0491 731.341
rfingers 7.12502
rthumb -33.15 -375.627
lclavicle -3.49861e-014 -6.36111e-014
lhumerus -54.6661 15.8412 40.0169
lradius 104.654
lwrist 3.10278
lhand -50.2583 -37.34
lfingers 7.12502
lthumb -22.837 -8.67201
rfemur -56.6879 11.7371 8.03426
rtibia 81.9881
rfoot 0.225477 -13.9108
rtoes -1.2326
lfemur -75.5085 -15.3365 -21.4317
ltibia 2.82771e-014
lfoot -185.832 -204.455
ltoes -39.1073
1717
root 5.31751 3.0954 18.1589 -50.2008 27.5444 -78.4541
lowerback 7.60166 7.71152 2.68095
upperback 7.06698 10.9013 8.644
thorax 1.95573 5.62781 6.83683
lowerneck -19.5889 -14.2705 -10.491
upperneck 9.33022 -21.5711 26.4384
head 10.7302 -8.35251 7.18236
rclavicle 4.45278e-014 1.90833e-014
rhumerus 111.665 66.8756 2.08027
rradius 54.2804
rwrist 11.3163
rhand -61.0579 731.443
rfingers 7.12502
rthumb -33.1584 -375.524
lclavicle 4.45278e-014 1.90833e-014
lhumerus -56.6013 16.3964 41
lradius 104.589
lwrist 3.40128
lhand -51.0145 -38.6114
lfingers 7.12502
lthumb -23.5625 -10.0348
rfemur -56.7031 11.8711 8.21755
rtibia 82.117
rfoot 0.18622 -14.5881
rtoes -1.40719
lfemur -75.7504 -15.4205 -21.0608
ltibia 8.94531e-016
lfoot -185.779 -204.324
ltoes -39.1345
1718
root 5.31549 3.09821 18.1728 -50.188 27.6534 -78.5293
lowerback 7.50811 7.79534 2.7928
upperback 7.04089 11.015 8.61026
thorax 1.99541 5.68871 6.74535
lowerneck -19.5074 -14.4583 -10.6379
upperneck 8.96866 -21.7433 26.5339
head 10.6548 -8.46255 7.18828
rclavicle 6.36111e-015 -2.8625e-014
rhumerus 111.035 66.8694 1.53846
rradius 54.1636
rwrist 11.3053
rhand -61.0623 731.514
rfingers 7.12502
rthumb -33.1626 -375.452
lclavicle 6.36111e-015 -2.8625e-014
lhumerus -58.34 16.8701 42.0212
lradius 104.43
lwrist 4.08458
lhand -51.6857 -40.0374
lfingers 7.12502
lthumb -24.2062 -11.5451
rfemur -56.6988 11.9503 8.31035
rtibia 82.2619
rfoot 0.136462 -15.2687
rtoes -1.38129
lfemur -75.9268 -15.5414 -20.7842
ltibia -2.59414e-014
lfoot -185.752 -204.231
ltoes -39.1372
1719
root 5.31308 3.10185 18.1827 -50.1781 27.8789 -78.5535
lowerback 7.45014 7.87897 2.81238
upperback 7.02013 11.1235 8.54612
thorax 2.01108 5.74353 6.6662
lowerneck -19.3861 -14.6526 -10.7813
upperneck 8.57848 -21.92 26.6261
head 10.5626 -8.58043 7.19208
rclavicle -2.8625e-014 3.81667e-014
rhumerus 110.3 66.8626 0.91421
rradius 54.0603
rwrist 11.3019
rhand -61.0651 731.578
rfingers 7.12502
rthumb -33.1652 -375.387
lclavicle -2.8625e-014 3.81667e-014
lhumerus -59.8745 17.2828 43.0734
lradius 104.172
lwrist 5.12315
lhand -52.2588 -41.6735
lfingers 7.12502
lthumb -24.7556 -13.2555
rfemur -56.6698 11.9547 8.27696
rtibia 82.4242
rfoot 0.0994601 -15.9136
rtoes -1.23103
lfemur -76.0148 -15.709 -20.6337
ltibia -5.42682e-014
lfoot -185.761 -204.187
ltoes -39.11
1720
root 5.31025 3.10533 18.1929 -50.1813 28.1227 -78.5794
lowerback 7.38975 7.96182 2.82571
upperback 7.00687 11.2301 8.4818
thorax 2.03537 5.79712 6.59197
lowerneck -19.2067 -14.8501 -10.9546
upperneck 8.13983 -22.0939 26.7578
head 10.4538 -8.70341 7.21699
rclavicle 6.36111e-014 4.77083e-014
rhumerus 109.507 66.8515 0.232288
rradius 53.951
rwrist 11.3114
rhand -61.0688 731.616
rfingers 7.12502
rthumb -33.1687 -375.349
lclavicle 6.36111e-014 4.77083e-014
lhumerus -61.2002 17.6524 44.1497
lradius 103.813
lwrist 6.45935
lhand -52.7458 -43.5158
lfingers 7.12502
lthumb -25.2223 -15.1627
rfemur -56.6409 11.9391 8.23355
rtibia 82.6034
rfoot 0.1027 -16.5536
rtoes -1.13084
lfemur -76.0911 -15.8859 -20.4989
ltibia 1.53064e-014
lfoot -185.771 -204.147
ltoes -39.0747
